<svg width="70" height="70" viewBox="0 0 70 70" fill="none" xmlns="http://www.w3.org/2000/svg">
<g clip-path="url(#clip0_4_356)">
<rect width="1920" height="1080" transform="translate(-946 -160)" fill="#F8FAFB"/>
<rect x="-38" y="-27" width="426" height="116" rx="4" fill="white"/>
<circle cx="35" cy="35" r="35" fill="#E3F6FF"/>
<mask id="mask0_4_356" style="mask-type:alpha" maskUnits="userSpaceOnUse" x="0" y="0" width="70" height="70">
<circle cx="35" cy="35" r="35" fill="#E3F6FF"/>
</mask>
<g mask="url(#mask0_4_356)">
<g opacity="0.1">
<path opacity="0.1" d="M58.5179 64.5039C59.9438 65.3258 59.9487 66.6591 58.5179 67.4842L38.0315 79.3964C37.2348 79.8018 36.3536 80.0131 35.4597 80.0131C34.5658 80.0131 33.6846 79.8018 32.8879 79.3964L12.2544 67.4761C10.8317 66.6542 10.8236 65.3185 12.2544 64.4958L32.74 52.6031C33.5362 52.1964 34.4176 51.9844 35.3117 51.9844C36.2059 51.9844 37.0872 52.1964 37.8835 52.6031L58.5179 64.5039Z" fill="#1D51BC"/>
</g>
<path d="M58.5561 54.8485C59.9844 55.6736 59.9869 57.0093 58.5699 57.8344L38.0347 69.7548C37.2364 70.1615 36.3532 70.3735 35.4573 70.3735C34.5613 70.3735 33.6781 70.1615 32.8798 69.7548L12.2064 57.8198C10.7805 56.9979 10.7724 55.659 12.2064 54.8338L32.7278 42.8997C33.5261 42.4944 34.4087 42.2831 35.304 42.2831C36.1993 42.2831 37.082 42.4944 37.8803 42.8997L58.5561 54.8485Z" fill="url(#paint0_linear_4_356)"/>
<path d="M59.6308 56.3264C59.6031 56.6466 59.4906 56.9537 59.3048 57.216C59.1191 57.4784 58.8668 57.6865 58.574 57.819L38.0347 69.7539C37.2364 70.1607 36.3532 70.3727 35.4573 70.3727C34.5613 70.3727 33.6781 70.1607 32.8798 69.7539L12.2064 57.819C11.9114 57.6873 11.6566 57.4798 11.4678 57.2176C11.279 56.9554 11.1631 56.648 11.1317 56.3264V56.3264V57.7296C11.1626 58.051 11.2784 58.3583 11.4673 58.6202C11.6561 58.8821 11.9112 59.089 12.2064 59.2197L32.8879 71.1547C33.6865 71.5604 34.5696 71.7718 35.4654 71.7718C36.3611 71.7718 37.2443 71.5604 38.0429 71.1547L58.5788 59.2197C58.8717 59.0879 59.1241 58.8803 59.3098 58.6183C59.4956 58.3564 59.6081 58.0495 59.6357 57.7296V57.7296V56.3264H59.6308Z" fill="url(#paint1_linear_4_356)"/>
<path d="M35.465 66.7152C35.2068 66.725 34.9494 66.6801 34.7098 66.5835L16.9297 56.3208L34.5708 46.0727C34.8076 45.9785 35.0616 45.935 35.3162 45.945C35.575 45.9348 35.8331 45.9789 36.0739 46.0743L53.8507 56.3403L36.2056 66.5892C35.97 66.6814 35.7179 66.7243 35.465 66.7152V66.7152Z" fill="#3E7BFA"/>
<path d="M16.924 24.6367V56.3216L34.7008 66.5835C35.1865 66.7558 35.7167 66.7558 36.2023 66.5835L53.8393 56.3354V24.6254L16.924 24.6367Z" fill="url(#paint2_linear_4_356)"/>
<path d="M35.5755 63.2674H35.3593C34.4664 63.2666 33.5873 63.0475 32.7985 62.6292L12.1617 50.717C11.8386 50.5706 11.5606 50.3404 11.3563 50.0504C11.1521 49.7604 11.0291 49.4211 11 49.0676C11.0275 48.7164 11.1484 48.3791 11.3503 48.0905C11.5521 47.8019 11.8275 47.5725 12.1479 47.4262L32.6473 35.5108C33.4656 35.0768 34.3813 34.8594 35.3073 34.8791C36.2368 34.8601 37.156 35.0775 37.9786 35.5108L58.613 47.4254C58.937 47.5711 59.2159 47.8011 59.4207 48.0914C59.6255 48.3817 59.7486 48.7216 59.7771 49.0757C59.7496 49.4268 59.6287 49.7642 59.4268 50.0528C59.225 50.3414 58.9496 50.5707 58.6292 50.717L38.125 62.6292C37.3402 63.0475 36.4648 63.2667 35.5755 63.2674ZM35.2073 35.2262C34.3775 35.2269 33.5607 35.4324 32.8294 35.8246L12.33 47.74C12.0673 47.8578 11.84 48.0423 11.6707 48.2752C11.5014 48.5081 11.396 48.7813 11.365 49.0676C11.3984 49.3555 11.5058 49.6299 11.6768 49.8639C11.8477 50.098 12.0764 50.2838 12.3406 50.4032L32.9806 62.3179C33.749 62.7077 34.5985 62.9109 35.4601 62.9109C36.3217 62.9109 37.1712 62.7077 37.9396 62.3179L58.4415 50.4065C58.7042 50.2883 58.9317 50.1038 59.1014 49.871C59.2712 49.6382 59.3774 49.3652 59.4097 49.0789C59.3761 48.7902 59.2679 48.5151 59.0957 48.2809C58.9235 48.0467 58.6933 47.8614 58.4276 47.7433L37.7908 35.8246C37.0561 35.434 36.2369 35.2294 35.4048 35.2287H35.3073L35.2073 35.2262Z" fill="white"/>
<path d="M35.3512 56.0102C34.4609 56.0093 33.5845 55.7902 32.7985 55.372L12.1617 43.4598C11.8383 43.313 11.56 43.0823 11.3558 42.7917C11.1515 42.5011 11.0287 42.1611 11 41.8071C11.0275 41.456 11.1484 41.1186 11.3503 40.83C11.5521 40.5414 11.8275 40.312 12.1479 40.1657L32.6473 28.2536C33.4656 27.8196 34.3813 27.6022 35.3073 27.6219C36.2368 27.6029 37.156 27.8203 37.9786 28.2536L58.613 40.1682C58.937 40.3139 59.2159 40.5439 59.4207 40.8342C59.6255 41.1244 59.7486 41.4644 59.7771 41.8185C59.7494 42.1699 59.6283 42.5076 59.4266 42.7967C59.2248 43.0858 58.9496 43.3158 58.6292 43.4631L38.125 55.372C37.3379 55.7902 36.4603 56.0093 35.569 56.0102H35.352H35.3512ZM35.2032 27.9715C34.375 27.972 33.5597 28.1767 32.8294 28.5674L12.33 40.4795C12.0672 40.5973 11.8399 40.7818 11.6706 41.0147C11.5013 41.2476 11.3959 41.5208 11.365 41.8071C11.398 42.0956 11.5052 42.3705 11.6762 42.6052C11.8472 42.8399 12.0761 43.0262 12.3406 43.146L32.9806 55.0582C33.749 55.4481 34.5985 55.6512 35.4601 55.6512C36.3217 55.6512 37.1712 55.4481 37.9396 55.0582L58.4415 43.1428C58.7042 43.0246 58.9317 42.84 59.1014 42.6073C59.2712 42.3745 59.3774 42.1015 59.4097 41.8152C59.3761 41.5265 59.2679 41.2514 59.0957 41.0172C58.9235 40.783 58.6933 40.5977 58.4276 40.4795L37.7908 28.5649C37.0579 28.1762 36.241 27.9724 35.4113 27.9715H35.2032Z" fill="white"/>
<path d="M46.0773 22.997C46.084 22.915 46.0962 22.8335 46.1138 22.7531C46.1112 22.7139 46.117 22.6745 46.1309 22.6377C46.1323 22.6217 46.1323 22.6057 46.1309 22.5897V22.4784C46.1309 22.4393 46.148 22.3239 46.1537 22.2483C46.1566 22.2082 46.1566 22.168 46.1537 22.128V21.4565C46.1537 19.5542 45.4773 18.2152 44.3945 17.5868L41.9125 16.1447C42.9929 16.7763 43.666 18.1087 43.6717 20.0176V20.8061C43.6737 20.8835 43.666 20.9607 43.649 21.0362C43.6262 21.1118 43.649 21.1118 43.649 21.1484C43.6514 21.2035 43.6437 21.2586 43.6262 21.311C43.6078 21.3912 43.5956 21.4727 43.5896 21.5549C43.5758 21.6361 43.5701 21.6646 43.5612 21.7174C43.5522 21.7703 43.5303 21.88 43.5132 21.9556C43.4961 22.0312 43.488 22.0792 43.4742 22.1434C43.4604 22.2077 43.4514 22.2475 43.4376 22.3003L43.3872 22.5076L43.3449 22.6645L43.3116 22.7881C43.2612 22.9621 43.207 23.136 43.149 23.31C43.1489 23.3242 43.144 23.3379 43.1352 23.349C43.0815 23.5116 43.0198 23.6832 42.9555 23.8514C42.9417 23.8937 42.9246 23.9327 42.9076 23.9774C42.8515 24.1181 42.7954 24.2579 42.7336 24.3986L42.7084 24.4628C42.6409 24.6197 42.5677 24.7741 42.4954 24.9286L42.4369 25.0465C42.3783 25.17 42.3165 25.2904 42.2548 25.4115L42.1962 25.5237C42.1149 25.6725 42.0336 25.8237 41.9467 25.97L41.8963 26.0513C41.8206 26.1805 41.7418 26.3066 41.6629 26.4326L41.593 26.5448C41.4922 26.6992 41.3906 26.8504 41.2873 26.9992C41.2703 27.0244 41.254 27.0439 41.2394 27.0691C41.131 27.2225 41.0188 27.374 40.9028 27.5235L40.8581 27.5821C40.715 27.7674 40.5776 27.9471 40.4151 28.1211C40.396 28.1457 40.3753 28.169 40.3533 28.191C40.2606 28.3007 40.1655 28.404 40.0728 28.508V28.5219C39.972 28.6316 39.8679 28.7348 39.7639 28.8389L39.5647 29.0324L39.5086 29.086C39.4194 29.1703 39.3258 29.2499 39.2281 29.3242L39.155 29.3885L38.9558 29.551L38.8574 29.6323L38.6778 29.773L38.5713 29.8543L38.3916 29.9803L38.2851 30.0559L38.0916 30.1852L37.999 30.2469L37.7185 30.4209C37.5892 30.4965 37.4632 30.564 37.3372 30.6282L37.2275 30.6786C37.1291 30.7266 37.034 30.7713 36.947 30.8103L36.8462 30.855L36.5657 30.9558L36.5072 30.9843L36.182 31.0851L35.9942 31.1298L35.9048 31.1526L35.6243 31.203C35.5426 31.2091 35.4612 31.2194 35.3804 31.2339H34.7398C34.6457 31.2302 34.552 31.2199 34.4594 31.203H34.3781C34.2773 31.1835 34.1756 31.1607 34.0781 31.1331H34.061C33.9657 31.1071 33.872 31.0754 33.7805 31.0379L33.7301 30.9843C33.6541 30.9533 33.5799 30.9178 33.5082 30.8778L33.435 30.8493L35.9154 32.2915L35.9487 32.311L35.9877 32.3281C36.0594 32.3692 36.1335 32.4058 36.2096 32.4378L36.2519 32.4574L36.2853 32.4712C36.3768 32.5083 36.4705 32.5401 36.5657 32.5663V32.5663C36.6644 32.5944 36.7645 32.6169 36.8657 32.6338H36.947C37.0364 32.6338 37.1267 32.659 37.2275 32.6671H37.8477C37.9298 32.6637 38.0114 32.6534 38.0916 32.6362V32.6362C38.1865 32.6282 38.2804 32.6113 38.3721 32.5858L38.4615 32.563L38.6331 32.5208H38.6542C38.7607 32.4923 38.8704 32.459 38.9794 32.4224L39.0607 32.3972L39.3411 32.2964H39.3777L39.4419 32.2655C39.5371 32.2265 39.633 32.1842 39.7224 32.1338L39.833 32.0785C39.959 32.0143 40.0858 31.9468 40.2143 31.8737C40.3111 31.8204 40.4048 31.7615 40.4947 31.6972L40.5874 31.6387L40.7809 31.5095L40.8874 31.4338L41.067 31.3046L41.1735 31.2233L41.3532 31.0859L41.454 31.0046C41.5182 30.951 41.5857 30.8949 41.6507 30.8363C41.6774 30.8184 41.7029 30.7989 41.7272 30.7778C41.8166 30.6965 41.9068 30.6209 42.0076 30.5339L42.0637 30.4803L42.2377 30.3177L42.2629 30.2925C42.367 30.1884 42.4702 30.0819 42.5718 29.9754V29.9616C42.6669 29.8575 42.7629 29.751 42.8523 29.6445C42.8625 29.6358 42.872 29.6263 42.8807 29.6161L42.9141 29.5738C43.0653 29.3998 43.214 29.2202 43.3571 29.0348V29.0178L43.3905 28.973C43.5048 28.8235 43.617 28.672 43.727 28.5186L43.7604 28.4739C43.7595 28.4663 43.7595 28.4587 43.7604 28.4511C43.8644 28.3024 43.9652 28.1511 44.066 27.9967C44.066 27.9796 44.0855 27.9658 44.0945 27.952L44.1367 27.8845C44.218 27.7585 44.2936 27.6317 44.3701 27.5032C44.3701 27.4837 44.3953 27.4642 44.4066 27.4414C44.4072 27.4339 44.4072 27.4263 44.4066 27.4187C44.4879 27.2699 44.5749 27.1211 44.6562 26.9699C44.6565 26.9628 44.6584 26.9557 44.6618 26.9494C44.6652 26.9431 44.67 26.9376 44.6757 26.9333L44.7148 26.8577C44.7765 26.7399 44.8383 26.6195 44.8969 26.496L44.9359 26.4204C44.9363 26.4035 44.9433 26.3875 44.9554 26.3757C45.0286 26.2212 45.1009 26.0667 45.1684 25.9123C45.1761 25.896 45.1826 25.8791 45.1879 25.8619C45.2497 25.7212 45.3058 25.5814 45.3619 25.4383L45.3903 25.3708C45.3981 25.3518 45.4046 25.3322 45.4098 25.3123C45.4741 25.1497 45.5358 24.9782 45.5919 24.8132V24.7823C45.648 24.6083 45.7017 24.4368 45.7545 24.2628C45.753 24.2513 45.754 24.2397 45.7573 24.2286C45.7607 24.2175 45.7664 24.2073 45.774 24.1986C45.7935 24.1758 45.774 24.1563 45.7879 24.1368L45.8301 23.9823L45.8805 23.775C45.8871 23.7216 45.8993 23.669 45.9171 23.6181L45.9423 23.5059L45.9594 23.4246C45.9675 23.3449 45.9825 23.266 46.0041 23.1889C46.0155 23.1092 46.0773 23.0547 46.0773 22.997Z" fill="#3E7BFA"/>
<path d="M33.5391 27.6284C33.5367 27.5504 33.5413 27.4723 33.5529 27.3951V27.2748L33.5781 27.0414V26.9317C33.5781 26.8951 33.5952 26.822 33.6009 26.7691C33.6066 26.7163 33.6261 26.6065 33.6375 26.5252C33.6489 26.4439 33.657 26.4155 33.6684 26.3626C33.6798 26.3098 33.6968 26.2 33.7131 26.1244C33.7293 26.0488 33.7383 26.0009 33.7521 25.9366C33.7659 25.8724 33.7773 25.8326 33.7887 25.7797C33.8001 25.7269 33.822 25.6424 33.8423 25.5724C33.8627 25.5025 33.8675 25.4684 33.8814 25.4155C33.8952 25.3627 33.9066 25.3342 33.918 25.292C33.9659 25.118 34.0188 24.944 34.0749 24.7701V24.731C34.1309 24.5628 34.1927 24.3969 34.2545 24.2286C34.2716 24.1864 34.2878 24.1473 34.3025 24.1026C34.3586 23.962 34.4179 23.8222 34.4765 23.6815C34.4842 23.6594 34.4938 23.6379 34.5049 23.6173C34.5724 23.4604 34.6423 23.3059 34.7155 23.1515L34.774 23.0312L34.9593 22.6694L35.0179 22.5572C35.0992 22.4084 35.1805 22.2572 35.2675 22.1109L35.3179 22.0296C35.3935 21.9003 35.4691 21.7711 35.5512 21.6451C35.5739 21.6085 35.5959 21.5719 35.6211 21.5353C35.7195 21.3809 35.8203 21.2297 35.9268 21.0776L35.9747 21.0102C36.0845 20.8557 36.1967 20.7045 36.3088 20.5557L36.3568 20.4972C36.4999 20.3118 36.6373 20.1322 36.7999 19.9558L36.856 19.8802C36.9486 19.7761 37.0438 19.6696 37.1364 19.5688L37.1535 19.5493C37.2543 19.4428 37.3559 19.3387 37.4592 19.2347L37.6616 19.0412L37.7153 18.9875L37.9941 18.7493L38.0754 18.6843L38.2721 18.516L38.3729 18.4347L38.5493 18.2941L38.6591 18.2128L38.8355 18.0835L38.942 18.0079L39.1322 17.8852L39.2273 17.8234C39.3225 17.7616 39.4184 17.7031 39.5078 17.647C39.5972 17.5909 39.7631 17.5063 39.8891 17.4421L39.9988 17.3885C40.094 17.3405 40.1899 17.299 40.2793 17.2568L40.3801 17.2145L40.6606 17.1137L40.7281 17.0885L41.0532 16.9877L41.2459 16.9421L41.3353 16.9194L41.6158 16.869L41.8597 16.8405H42.497C42.5911 16.8442 42.6849 16.8545 42.7775 16.8714L42.8588 16.8852C42.9629 16.9047 43.0612 16.9275 43.1588 16.9551C43.2515 16.9836 43.3409 17.0169 43.4392 17.0535L43.5149 17.0844C43.5905 17.1177 43.6661 17.1543 43.7392 17.1942L43.8091 17.2332L42.5694 16.5129C42.5602 16.5048 42.5498 16.4982 42.5385 16.4934L42.4995 16.4731C42.4263 16.434 42.3507 16.3975 42.2751 16.3633L42.2353 16.3446H42.1987C42.1072 16.3072 42.0136 16.2754 41.9182 16.2495V16.2495C41.8198 16.2211 41.7215 16.1991 41.6182 16.1796H41.5369C41.443 16.1642 41.3483 16.1536 41.2532 16.1479H40.6159C40.5338 16.1513 40.4523 16.1616 40.372 16.1788V16.1788L40.0915 16.2292L40.0021 16.2519L39.833 16.291H39.8167L39.4907 16.3918L39.4233 16.417L39.1428 16.5186H39.1095L39.042 16.5462L38.7615 16.6779L38.6518 16.7316C38.5258 16.7983 38.4006 16.8633 38.2705 16.9365C38.1736 16.9897 38.08 17.0486 37.99 17.1129L37.8949 17.1746C37.8307 17.2169 37.7657 17.2559 37.7039 17.3039L37.5941 17.3771L37.4177 17.5063L37.308 17.5876L37.1316 17.7283L37.0307 17.8096C36.9633 17.8632 36.899 17.9193 36.834 17.9722L36.7584 18.0364L36.4779 18.2746L36.4243 18.3282L36.2479 18.4965L36.2227 18.5217C36.1186 18.6258 36.0178 18.729 35.917 18.8388C35.8162 18.9485 35.7219 19.0493 35.6365 19.1558C35.6278 19.166 35.6183 19.1755 35.6081 19.1843L35.5772 19.2265C35.426 19.4005 35.2772 19.5802 35.1341 19.7655V19.7826L35.1008 19.8249C34.9886 19.9761 34.8764 20.1281 34.7667 20.2826L34.7333 20.3273V20.3468C34.6268 20.498 34.526 20.65 34.4277 20.8045L34.3968 20.8492C34.3968 20.8687 34.3716 20.8939 34.3578 20.9134C34.2765 21.0427 34.1952 21.1687 34.122 21.2979C34.1108 21.3181 34.0986 21.3376 34.0854 21.3565V21.3817C33.9984 21.5272 33.9139 21.6792 33.8358 21.8304L33.8131 21.8638C33.8131 21.889 33.7903 21.9142 33.7765 21.9394C33.7123 22.0597 33.6529 22.1832 33.5911 22.3044C33.5911 22.3296 33.5659 22.3523 33.5546 22.3775L33.5318 22.4223C33.4586 22.5767 33.3887 22.7312 33.3212 22.8881V22.9019C33.316 22.9191 33.3094 22.936 33.3017 22.9523C33.2432 23.0929 33.1839 23.2328 33.1278 23.3734C33.12 23.3974 33.1105 23.4207 33.0993 23.4433C33.0941 23.4624 33.0875 23.4812 33.0798 23.4994C33.018 23.6677 32.9562 23.8335 32.9001 24.0018C32.9013 24.0113 32.9013 24.0208 32.9001 24.0303C32.844 24.2042 32.7904 24.3782 32.7432 24.5522C32.7444 24.5637 32.7433 24.5752 32.7399 24.5863C32.7366 24.5973 32.7311 24.6075 32.7237 24.6164L32.7067 24.6749C32.6993 24.7285 32.6862 24.7811 32.6676 24.8318C32.6563 24.8822 32.631 24.9692 32.614 25.0391C32.5969 25.1091 32.5888 25.1456 32.5774 25.196L32.5473 25.3131V25.3887C32.5302 25.47 32.5164 25.5513 32.5026 25.6269C32.4888 25.7025 32.4831 25.7367 32.4717 25.7895C32.4603 25.8423 32.4465 25.9521 32.4351 26.0334L32.4221 26.1472V26.3098C32.4221 26.3464 32.405 26.4643 32.3969 26.5399V27.3309C32.335 28.2443 32.5027 29.1588 32.8847 29.9908C33.1535 30.4967 33.5566 30.9186 34.0497 31.2103L35.2902 31.9314C34.2098 31.3038 33.5391 29.9681 33.5334 28.0658V27.7316C33.5334 27.6983 33.5359 27.6642 33.5391 27.6284Z" fill="#A3A3A3"/>
<path d="M39.5436 17.6461C42.8767 15.7235 45.5854 17.2673 45.5968 21.0979C45.4872 23.1854 44.8849 25.2172 43.8393 27.0272C42.7937 28.8372 41.3345 30.374 39.581 31.5118C36.2495 33.4312 33.5359 31.8931 33.5277 28.0657C33.6384 25.9777 34.241 23.9455 35.2865 22.1347C36.3319 20.3239 37.7906 18.7859 39.5436 17.6461V17.6461Z" fill="url(#paint3_linear_4_356)"/>
<path d="M33.5871 28.2788C33.5849 28.1934 33.5898 28.108 33.6017 28.0235C33.6091 27.9799 33.6091 27.9354 33.6017 27.8918L33.6269 27.6365V27.5195L33.6521 27.3398C33.6594 27.2456 33.6724 27.1519 33.6911 27.0593L33.7245 26.8797C33.7383 26.7984 33.7554 26.7081 33.7724 26.6212C33.7895 26.5342 33.8033 26.4838 33.8171 26.4139C33.831 26.3439 33.8423 26.2984 33.8562 26.2423C33.87 26.1862 33.8952 26.0911 33.9123 26.0147C33.9293 25.9383 33.9431 25.8993 33.957 25.8432C33.9708 25.7871 33.9854 25.7505 33.996 25.7058C34.0496 25.5147 34.1082 25.3245 34.17 25.1448V25.0969C34.2317 24.9148 34.2992 24.7294 34.3691 24.5359L34.4195 24.3985C34.4813 24.2441 34.5455 24.0896 34.6106 23.9352C34.6158 23.9085 34.6266 23.8833 34.6423 23.8612C34.7155 23.6896 34.7935 23.5214 34.8724 23.3531L34.9366 23.2214L35.1805 22.8539L35.2447 22.7336C35.3317 22.571 35.4243 22.4084 35.5252 22.2458C35.5447 22.215 35.5642 22.1841 35.5812 22.1532C35.6625 22.0125 35.7495 21.8727 35.8365 21.7353L35.9178 21.6117C36.0243 21.4435 36.1365 21.2776 36.2519 21.115L36.3056 21.0394C36.4235 20.8711 36.5495 20.7053 36.673 20.5427C36.6901 20.5164 36.7089 20.4911 36.7291 20.4671L36.847 20.3183L36.9982 20.1305L37.1242 19.9818C37.1746 19.9232 37.2226 19.8639 37.273 19.8078C37.3738 19.6924 37.4779 19.5777 37.5844 19.4655L37.6014 19.446C37.7098 19.3284 37.822 19.2133 37.938 19.1005L38.1542 18.8867L38.2128 18.8306C38.3111 18.7412 38.4063 18.651 38.4932 18.5672L38.5745 18.4973L38.7908 18.3152L38.9005 18.2258L39.0973 18.0746L39.2111 17.986C39.2753 17.9356 39.3403 17.8876 39.4078 17.8429L39.5233 17.7616L39.7362 17.6185L39.8371 17.5543C39.9435 17.4868 40.0476 17.4226 40.1541 17.3608L40.463 17.1812L40.5443 17.1389L40.8248 17.0072L40.8581 16.9901L41.1386 16.8722L41.4191 16.76L41.4922 16.7348C41.6101 16.6926 41.7304 16.6535 41.8483 16.6251L42.0532 16.5714L42.1483 16.5487C42.2491 16.5259 42.3507 16.5097 42.4483 16.4926L42.7287 16.4592H43.3571C43.4389 16.4562 43.5208 16.4628 43.601 16.4788H43.6514L43.814 16.5072C43.9237 16.5266 44.0322 16.5518 44.1392 16.5828H44.1563C44.2573 16.612 44.3566 16.6468 44.4538 16.6869L44.5351 16.7235C44.6175 16.7609 44.6988 16.8001 44.779 16.8413L44.8603 16.8836L42.3873 15.4406L42.3507 15.4211L42.3084 15.4016C42.2271 15.3569 42.1458 15.3203 42.0645 15.2813L42.0198 15.2585L41.98 15.2439C41.8816 15.2049 41.7833 15.1707 41.6825 15.1398C41.5755 15.1088 41.4669 15.0836 41.3573 15.0642H41.3183L41.1662 15.0333H41.1134L40.8939 15H40.2517C40.1576 15.0041 40.0639 15.0144 39.9712 15.0309V15.0309C39.8707 15.0384 39.771 15.0553 39.6736 15.0813L39.5785 15.1065L39.3899 15.1545H39.3737C39.2558 15.1854 39.1355 15.2219 39.0176 15.2642L38.9444 15.2927L38.6631 15.4016L38.6241 15.4179C38.5428 15.4487 38.4672 15.4853 38.3859 15.5219L38.3323 15.5609L38.0518 15.6934L37.973 15.7317C37.8721 15.7853 37.7705 15.8382 37.6673 15.8999C37.564 15.9617 37.4567 16.0235 37.3502 16.091L37.2494 16.1585L37.0356 16.3007L36.9202 16.382L36.7234 16.5251L36.6096 16.6137L36.4129 16.7682L36.3031 16.8552C36.23 16.9148 36.1571 16.9766 36.0845 17.0405L36.0032 17.108C35.9051 17.1907 35.8114 17.2787 35.7227 17.3714L35.6642 17.4275L35.4715 17.6128L35.4463 17.6413C35.3319 17.7535 35.2198 17.8686 35.1097 17.9868C35.1026 17.9926 35.096 17.9991 35.0902 18.0063C34.9862 18.1185 34.8829 18.2339 34.7813 18.3486L34.7504 18.3819L34.6325 18.5225L34.5065 18.6713L34.3553 18.8591L34.2374 19.0079L34.2147 19.0363L34.1781 19.0843C34.0545 19.2469 33.9342 19.4095 33.8131 19.581L33.7724 19.6338L33.7586 19.659C33.6432 19.8216 33.531 19.9842 33.4245 20.1582L33.3903 20.2029L33.3456 20.2761C33.2586 20.4134 33.1741 20.5565 33.0904 20.6939C33.0904 20.7167 33.0619 20.7386 33.0513 20.7614L33.0326 20.7866C32.94 20.9492 32.8473 21.1118 32.7522 21.2744L32.7294 21.3134L32.6871 21.3947L32.4847 21.793C32.4847 21.8215 32.4563 21.8491 32.4457 21.8743L32.4205 21.9247C32.3392 22.093 32.2636 22.2613 32.1904 22.4328V22.4499C32.1918 22.4601 32.1904 22.4704 32.1864 22.4799C32.1824 22.4893 32.1759 22.4975 32.1677 22.5035C32.1002 22.658 32.0384 22.8125 31.9766 22.9694C31.9766 22.9921 31.9571 23.0173 31.9482 23.0425C31.9394 23.0627 31.9318 23.0833 31.9254 23.1043C31.8555 23.2897 31.788 23.4718 31.7262 23.6653C31.7274 23.6763 31.7274 23.6875 31.7262 23.6986C31.6644 23.8896 31.6059 24.0774 31.5523 24.2595C31.5538 24.2719 31.5529 24.2844 31.5496 24.2965C31.5462 24.3085 31.5405 24.3197 31.5327 24.3294C31.5249 24.3515 31.5184 24.3741 31.5132 24.3969C31.5067 24.4559 31.4916 24.5137 31.4685 24.5684C31.4514 24.6245 31.4319 24.7197 31.4124 24.7961C31.3929 24.8725 31.3872 24.9115 31.3734 24.97C31.3596 25.0286 31.3539 25.0513 31.345 25.0904L31.3279 25.1717C31.3108 25.2586 31.2945 25.3456 31.2799 25.4326L31.2466 25.6123C31.2389 25.7019 31.2259 25.7909 31.2076 25.8789C31.211 25.9211 31.2043 25.9634 31.1881 26.0025C31.1685 26.0415 31.1881 26.0391 31.1881 26.0562V26.1797L31.1629 26.4382V27.3057C31.1335 28.3112 31.3571 29.308 31.8132 30.2046C32.0853 30.7548 32.4999 31.222 33.0139 31.5574L35.5008 32.9988C34.3139 32.3086 33.5781 30.8436 33.5733 28.7584V28.3966C33.5803 28.3577 33.5849 28.3183 33.5871 28.2788V28.2788Z" fill="#3E7BFA"/>
<path d="M37.2364 33.4418C36.7311 33.4545 36.2298 33.35 35.7717 33.1364C35.3136 32.9229 34.9111 32.6061 34.5959 32.211C33.8749 31.2056 33.5142 29.9862 33.5724 28.7503C33.6423 26.4576 34.3041 24.2219 35.4934 22.2605C36.0808 21.2382 36.7841 20.287 37.5892 19.4257C38.3397 18.6114 39.2048 17.9109 40.1573 17.3462C41.0492 16.789 42.072 16.4763 43.123 16.4398C43.6286 16.4267 44.1305 16.5308 44.5891 16.7441C45.0478 16.9573 45.4508 17.2739 45.7667 17.6689C46.488 18.673 46.8487 19.8915 46.7902 21.1264C46.7808 22.2315 46.6085 23.3291 46.2789 24.3839C45.9359 25.5118 45.4639 26.5964 44.8725 27.6162C44.2853 28.6404 43.5821 29.5935 42.7767 30.4567C42.0255 31.2721 41.1586 31.9728 40.2037 32.5362C39.3109 33.0926 38.2877 33.4049 37.2364 33.4418ZM42.8694 17.1828C41.9099 17.2157 40.9759 17.5005 40.1614 18.0088C39.2909 18.5246 38.5005 19.165 37.8152 19.9094C36.3454 21.493 35.2515 23.3876 34.6146 25.4521C34.3137 26.4148 34.1564 27.4166 34.148 28.4251C34.0952 29.5522 34.4243 30.6642 35.0821 31.581C35.3697 31.9415 35.737 32.2305 36.1551 32.4253C36.5731 32.6201 37.0306 32.7154 37.4917 32.7037C38.4521 32.6698 39.3866 32.3835 40.2012 31.8737C41.0718 31.3583 41.8623 30.7182 42.5474 29.9738C43.2827 29.1859 43.9248 28.316 44.4611 27.3813C45.0022 26.4504 45.434 25.4602 45.748 24.4303C46.0489 23.4676 46.2062 22.4658 46.2147 21.4573C46.2673 20.33 45.9375 19.2179 45.2789 18.3014C44.991 17.9413 44.6237 17.6527 44.2057 17.4582C43.7876 17.2637 43.3303 17.1686 42.8694 17.1804V17.1828Z" fill="url(#paint4_linear_4_356)"/>
<path d="M24.6324 43.3257L24.6608 43.2835C24.6662 43.2707 24.6728 43.2585 24.6804 43.2469C24.6808 43.23 24.6878 43.214 24.6999 43.2022C24.7194 43.1851 24.6999 43.177 24.6999 43.1631C24.7035 43.145 24.7081 43.1271 24.7137 43.1095V42.8656C24.7151 42.8534 24.7151 42.8412 24.7137 42.829V42.7672C24.7124 42.7486 24.7124 42.7298 24.7137 42.7111C24.7148 42.6997 24.7137 42.6881 24.7104 42.6771C24.707 42.666 24.7015 42.6558 24.6942 42.6469C24.689 42.6241 24.6825 42.6015 24.6747 42.5794C24.6483 42.502 24.6154 42.4269 24.5763 42.3551C24.5671 42.3358 24.5568 42.3171 24.5454 42.299C24.5202 42.2543 24.4917 42.212 24.4641 42.1673C24.4358 42.1216 24.4048 42.0777 24.3714 42.0356C24.3381 41.9933 24.2901 41.9348 24.2454 41.8844L24.217 41.851C24.1552 41.7868 24.091 41.725 24.0259 41.6657L23.9926 41.6372C23.9265 41.5793 23.8573 41.525 23.7853 41.4746L23.7552 41.4535C23.6835 41.4059 23.6094 41.3619 23.5333 41.3218L23.4943 41.299C23.4249 41.2654 23.3547 41.2345 23.2837 41.2064H23.2463C23.1631 41.1759 23.0778 41.1514 22.991 41.1332C22.856 41.092 22.7125 41.0877 22.5752 41.1207C22.438 41.1538 22.3121 41.2229 22.2106 41.321L31.6408 30.3778C31.7384 30.2732 31.8625 30.197 32 30.1575C32.1374 30.1179 32.2831 30.1166 32.4213 30.1535C32.5046 30.1681 32.5862 30.1907 32.6652 30.2209V30.2209L32.7042 30.238C32.7489 30.2551 32.7936 30.2713 32.8416 30.2941L32.9115 30.3307L32.9538 30.3502L32.9895 30.3705C33.0375 30.3957 33.0822 30.4242 33.1269 30.4518L33.1716 30.4851L33.205 30.5079C33.2221 30.5173 33.2381 30.5285 33.2529 30.5412C33.296 30.5705 33.3372 30.6022 33.3765 30.6364L33.4131 30.6672L33.4497 30.7152L33.5033 30.7599L33.6293 30.8835V30.8998L33.6602 30.9331C33.6911 30.9664 33.722 31.0006 33.7496 31.0371C33.7624 31.0519 33.7736 31.068 33.783 31.0851C33.8163 31.1274 33.8472 31.1721 33.8781 31.2168L33.9261 31.2867C33.9388 31.3064 33.95 31.327 33.9594 31.3485C33.9594 31.3656 33.9789 31.3851 33.9903 31.4046C34.0277 31.4764 34.0606 31.5505 34.0886 31.6265V31.6964C34.096 31.7174 34.1017 31.7389 34.1057 31.7607C34.107 31.7793 34.107 31.7981 34.1057 31.8168C34.1071 31.8373 34.1071 31.858 34.1057 31.8785V31.8785V31.9037C34.1086 31.9365 34.1086 31.9694 34.1057 32.0021V32.0216C34.1046 32.0281 34.1046 32.0347 34.1057 32.0411V32.1086C34.1042 32.118 34.1042 32.1276 34.1057 32.1371C34.1024 32.1553 34.0978 32.1732 34.0919 32.1907V32.2192C34.0915 32.2278 34.0893 32.2363 34.0853 32.244C34.0814 32.2517 34.0759 32.2585 34.0691 32.2639V32.2923L34.0407 32.3346L34.0212 32.3598L24.5934 43.303C24.6058 43.3115 24.6189 43.3191 24.6324 43.3257V43.3257Z" fill="#1D51BC"/>
<path d="M23.8268 43.5493C24.5283 43.6842 24.9072 43.2493 24.669 42.5786C24.5231 42.22 24.2945 41.9009 24.002 41.6473C23.7094 41.3937 23.3611 41.2128 22.9854 41.1194C22.2838 40.9844 21.9017 41.4202 22.1431 42.09C22.2888 42.4488 22.5173 42.768 22.8099 43.0216C23.1025 43.2752 23.4509 43.4561 23.8268 43.5493V43.5493Z" fill="#3E7BFA"/>
<g style="mix-blend-mode:hue">
<path d="M79 -11H0V89H79V-11Z" fill="#E7DFFF"/>
</g>
</g>
</g>
<defs>
<linearGradient id="paint0_linear_4_356" x1="35.382" y1="70.3735" x2="35.382" y2="42.2831" gradientUnits="userSpaceOnUse">
<stop stop-color="white"/>
<stop offset="0.5" stop-color="#FCFEFF"/>
<stop offset="0.8" stop-color="#F4F8FF"/>
<stop offset="1" stop-color="#E9F1FF"/>
</linearGradient>
<linearGradient id="paint1_linear_4_356" x1="11.1317" y1="64.0491" x2="59.6357" y2="64.0491" gradientUnits="userSpaceOnUse">
<stop stop-color="#B7D1FF"/>
<stop offset="0.2" stop-color="#DFE8FF"/>
<stop offset="0.52" stop-color="white"/>
<stop offset="0.73" stop-color="#FCFDFF"/>
<stop offset="0.85" stop-color="#EDF2FF"/>
<stop offset="0.95" stop-color="#D3DFFF"/>
<stop offset="1" stop-color="#D8E5FF"/>
</linearGradient>
<linearGradient id="paint2_linear_4_356" x1="35.3817" y1="66.7127" x2="35.3817" y2="24.6254" gradientUnits="userSpaceOnUse">
<stop stop-color="#DBE2FD"/>
<stop offset="0.11" stop-color="#B7CBFB" stop-opacity="0.8"/>
<stop offset="0.24" stop-color="#91B0F9" stop-opacity="0.541"/>
<stop offset="0.37" stop-color="#70A2F8" stop-opacity="0.412"/>
<stop offset="0.5" stop-color="#5585F6" stop-opacity="0.259"/>
<stop offset="0.63" stop-color="#409BF5" stop-opacity="0.149"/>
<stop offset="0.75" stop-color="#316BF5" stop-opacity="0.071"/>
<stop offset="0.88" stop-color="#2865F4" stop-opacity="0.02"/>
<stop offset="1" stop-color="#2586F4" stop-opacity="0"/>
</linearGradient>
<linearGradient id="paint3_linear_4_356" x1="45.5968" y1="24.5786" x2="33.5277" y2="24.5786" gradientUnits="userSpaceOnUse">
<stop stop-color="#DBE2FD"/>
<stop offset="0.11" stop-color="#B7CBFB" stop-opacity="0.8"/>
<stop offset="0.24" stop-color="#91B0F9" stop-opacity="0.541"/>
<stop offset="0.37" stop-color="#70A2F8" stop-opacity="0.412"/>
<stop offset="0.5" stop-color="#5585F6" stop-opacity="0.259"/>
<stop offset="0.63" stop-color="#409BF5" stop-opacity="0.149"/>
<stop offset="0.75" stop-color="#316BF5" stop-opacity="0.071"/>
<stop offset="0.88" stop-color="#2865F4" stop-opacity="0.02"/>
<stop offset="1" stop-color="#2586F4" stop-opacity="0"/>
</linearGradient>
<linearGradient id="paint4_linear_4_356" x1="46.7964" y1="24.9408" x2="33.5663" y2="24.9408" gradientUnits="userSpaceOnUse">
<stop stop-color="white"/>
<stop offset="0.5" stop-color="#FCFEFF"/>
<stop offset="0.8" stop-color="#F4F8FF"/>
<stop offset="1" stop-color="#E9F1FF"/>
</linearGradient>
<clipPath id="clip0_4_356">
<rect width="1920" height="1080" fill="white" transform="translate(-946 -160)"/>
</clipPath>
</defs>
</svg>