<svg width="70" height="70" viewBox="0 0 70 70" fill="none" xmlns="http://www.w3.org/2000/svg">
<g clip-path="url(#clip0_4_356)">
<rect width="1920" height="1080" transform="translate(-1493 -160)" fill="#F8FAFB"/>
<rect x="-38" y="-27" width="426" height="116" rx="4" fill="white"/>
<circle cx="35" cy="35" r="35" fill="#E3F6FF"/>
<circle cx="35" cy="35" r="35" fill="#E3F6FF"/>
<mask id="mask0_4_356" style="mask-type:alpha" maskUnits="userSpaceOnUse" x="0" y="0" width="70" height="70">
<circle cx="35" cy="35" r="35" fill="#E3F6FF"/>
</mask>
<g mask="url(#mask0_4_356)">
<g opacity="0.1">
<path opacity="0.1" d="M56.7866 63.2256C58.1606 64.0207 58.1653 65.3046 56.7866 66.0973L37.0466 77.5755C36.2793 77.9674 35.4301 78.1717 34.5685 78.1717C33.707 78.1717 32.8577 77.9674 32.0905 77.5755L12.2087 66.0973C10.8378 65.3054 10.83 64.0207 12.2087 63.2256L31.9612 51.7474C32.7289 51.3569 33.578 51.1533 34.4393 51.1533C35.3006 51.1533 36.1497 51.3569 36.9174 51.7474L56.7866 63.2256Z" fill="#1D51BC"/>
</g>
<path d="M56.8234 53.9133C58.1997 54.7084 58.2021 55.9954 56.8367 56.7874L37.0497 68.2875C36.2807 68.6801 35.4296 68.8848 34.5662 68.8848C33.7027 68.8848 32.8516 68.6801 32.0826 68.2875L12.1624 56.796C10.7885 56.0009 10.7806 54.7139 12.1624 53.9188L31.9361 42.4132C32.7053 42.0213 33.5564 41.817 34.4197 41.817C35.283 41.817 36.134 42.0213 36.9032 42.4132L56.8234 53.9133Z" fill="url(#paint0_linear_4_356)"/>
<path d="M57.859 55.3515C57.8322 55.6597 57.7237 55.9553 57.5447 56.2076C57.3657 56.46 57.1227 56.6601 56.8407 56.7874L37.0497 68.2875C36.2807 68.6801 35.4296 68.8847 34.5662 68.8847C33.7028 68.8847 32.8516 68.6801 32.0826 68.2875L12.1625 56.7952C11.8785 56.6679 11.6331 56.4679 11.4513 56.2154C11.2694 55.9628 11.1575 55.6667 11.1269 55.357V55.357V56.709C11.1566 57.019 11.2681 57.3155 11.4501 57.5682C11.632 57.821 11.8779 58.0208 12.1625 58.1472L32.0905 69.6364C32.8597 70.0283 33.7107 70.2326 34.574 70.2326C35.4373 70.2326 36.2884 70.0283 37.0576 69.6364L56.8375 58.1472C57.12 58.02 57.3634 57.8196 57.5425 57.5667C57.7215 57.3139 57.8297 57.0177 57.8559 56.709V56.709V55.3515H57.859Z" fill="url(#paint1_linear_4_356)"/>
<path d="M34.5736 65.3586C34.325 65.3683 34.0771 65.3259 33.8459 65.2341L16.7136 55.3429L33.712 45.4682C33.9406 45.3789 34.185 45.3371 34.4303 45.3453C34.6799 45.3356 34.9287 45.3789 35.1603 45.4722L52.2895 55.3617L35.2872 65.2364C35.0596 65.3271 34.8153 65.3685 34.5705 65.3579L34.5736 65.3586Z" fill="#3E7BFA"/>
<path d="M16.7081 24.8156V55.3429L33.8373 65.2356C34.0694 65.3272 34.318 65.3697 34.5673 65.3602C34.8121 65.3705 35.0564 65.3291 35.2841 65.2387L52.2785 55.3656V24.8156H16.7081Z" fill="url(#paint2_linear_4_356)"/>
<path d="M34.6755 62.0428H34.4718C33.6115 62.042 32.7644 61.8309 32.0043 61.4278L12.1194 49.9465C11.8096 49.8033 11.543 49.581 11.3465 49.302C11.15 49.023 11.0305 48.6971 11 48.3571C11.003 48.0472 11.1027 47.746 11.2851 47.4955C11.5028 47.1971 11.7829 46.9498 12.1061 46.7709L31.8586 35.2943C32.6471 34.8762 33.5294 34.6667 34.4217 34.6856C35.3174 34.6673 36.2031 34.8768 36.9957 35.2943L56.8783 46.7725C57.1904 46.9128 57.4591 47.1343 57.6564 47.4138C57.8537 47.6934 57.9723 48.0208 58 48.3618C57.9732 48.7005 57.8566 49.0259 57.6622 49.3044C57.4678 49.583 57.2026 49.8046 56.8939 49.9465L37.1367 61.4247C36.3795 61.8297 35.5342 62.0419 34.6755 62.0428V62.0428ZM34.3277 35.0225C33.5277 35.0232 32.7401 35.2204 32.0341 35.5966L12.2815 47.0748C12.0272 47.1876 11.8072 47.3656 11.6439 47.5908C11.4806 47.816 11.3798 48.0804 11.3517 48.3571C11.3583 48.6066 11.4442 48.8475 11.5969 49.0449C11.7856 49.2911 12.0236 49.4952 12.2956 49.6442L32.1798 61.1223C32.92 61.4986 33.7386 61.6947 34.5689 61.6947C35.3993 61.6947 36.2179 61.4986 36.9581 61.1223L56.713 49.6473C56.9824 49.499 57.2179 49.2963 57.4047 49.052C57.5566 48.855 57.6412 48.6144 57.6459 48.3658C57.6136 48.0875 57.5094 47.8225 57.3434 47.5968C57.1775 47.3711 56.9556 47.1926 56.6997 47.0787L36.8148 35.5966C36.1068 35.2204 35.3174 35.0232 34.5157 35.0225H34.3277Z" fill="white"/>
<path d="M34.6755 55.0468H34.4718C33.6115 55.046 32.7644 54.8349 32.0043 54.4319L12.1194 42.9506C11.8081 42.8094 11.5402 42.5877 11.3434 42.3082C11.1465 42.0288 11.028 41.7018 11 41.3612C11.0268 41.0225 11.1434 40.6972 11.3378 40.4186C11.5322 40.1401 11.7974 39.9184 12.1061 39.7765L31.8586 28.2983C32.6471 27.8802 33.5294 27.6707 34.4217 27.6897C35.3174 27.6714 36.2031 27.8808 36.9957 28.2983L56.8783 39.7765C57.1903 39.9178 57.4589 40.1399 57.6561 40.4199C57.8533 40.7 57.9721 41.0276 58 41.369C57.9735 41.7073 57.857 42.0324 57.6625 42.3105C57.468 42.5886 57.2026 42.8096 56.8939 42.9506L37.1367 54.4287C36.3795 54.8337 35.5342 55.046 34.6755 55.0468V55.0468ZM34.3277 28.0265C33.5277 28.0272 32.7401 28.2244 32.0341 28.6007L12.2815 40.082C12.0284 40.1955 11.8094 40.3733 11.6462 40.5977C11.4831 40.8221 11.3816 41.0854 11.3517 41.3612C11.3839 41.6386 11.4874 41.903 11.6521 42.1286C11.8169 42.3541 12.0372 42.5331 12.2917 42.6482L32.1798 54.1287C32.9202 54.5044 33.7387 54.7001 34.5689 54.7001C35.3992 54.7001 36.2177 54.5044 36.9581 54.1287L56.713 42.6513C56.9662 42.5375 57.1853 42.3596 57.3489 42.1353C57.5125 41.911 57.6149 41.648 57.6459 41.3721C57.6134 41.0936 57.5091 40.8282 57.3432 40.6021C57.1773 40.3759 56.9556 40.1967 56.6997 40.082L36.8148 28.6007C36.1068 28.2244 35.3174 28.0272 34.5157 28.0265H34.3277Z" fill="white"/>
<path d="M45.0695 17.2032C45.827 16.7653 46.4435 17.117 46.4458 17.9865L46.4811 30.4572C46.4557 30.9319 46.3185 31.394 46.0807 31.8056C45.8429 32.2173 45.5112 32.5669 45.1126 32.826L28.8091 42.2307C28.0516 42.6686 27.4351 42.3169 27.4328 41.4474L27.3991 28.9759C27.424 28.5019 27.5606 28.0404 27.7979 27.6293C28.0352 27.2181 28.3664 26.869 28.7644 26.6103L45.0695 17.2032Z" fill="url(#paint3_linear_4_356)"/>
<path d="M45.2152 17.1249L45.2857 17.0951L45.3805 17.063L45.4424 17.0465L45.4988 17.0332H45.7204C45.7538 17.0306 45.7873 17.0306 45.8207 17.0332H45.845L45.9233 17.0551H45.9453C45.977 17.0668 46.0077 17.0812 46.0369 17.0982L44.1937 16.0164L44.1178 16H43.5694L43.4504 16.0274H43.4151L43.3799 16.0439H43.3501L43.2232 16.1089L26.9298 25.5402L26.7975 25.624L26.7567 25.6538L26.6706 25.7188L26.6243 25.7564L26.546 25.8238L26.4998 25.8669L26.47 25.8943L26.4403 25.9264L26.347 26.0267L26.3173 26.0564L26.293 26.0862L26.2413 26.1512C26.2281 26.1643 26.2163 26.1788 26.206 26.1943C26.1961 26.2054 26.1869 26.2171 26.1786 26.2295L26.141 26.2812L26.1136 26.3165C26.1008 26.3382 26.0864 26.3588 26.0705 26.3784L26.047 26.4183V26.4348L25.9742 26.5507V26.575C25.9572 26.602 25.9417 26.63 25.928 26.6588L25.906 26.6964L25.8841 26.7395L25.8676 26.7747L25.8214 26.8719V26.8883C25.8026 26.9291 25.7862 26.9667 25.7697 27.0097V27.034L25.7572 27.0755C25.7527 27.0971 25.7454 27.1179 25.7353 27.1374L25.7188 27.186L25.7024 27.2424V27.28L25.6859 27.3419L25.6695 27.4124C25.6682 27.4204 25.6682 27.4286 25.6695 27.4367C25.6679 27.4539 25.6679 27.4712 25.6695 27.4884C25.6725 27.5254 25.666 27.5626 25.6507 27.5965C25.6496 27.6064 25.6496 27.6163 25.6507 27.6262V27.6967C25.6522 27.7121 25.6522 27.7276 25.6507 27.7429V27.8996L25.6005 40.3789C25.5936 40.6076 25.6517 40.8336 25.7682 41.0306C25.8272 41.1241 25.9078 41.202 26.0032 41.2578L27.8448 42.3396C27.7059 42.2412 27.5956 42.1079 27.5249 41.9531C27.4542 41.7984 27.4256 41.6277 27.4421 41.4583L27.4077 28.9869V28.8357C27.409 28.8195 27.409 28.8033 27.4077 28.7871C27.4055 28.7542 27.41 28.7211 27.421 28.69C27.4343 28.6579 27.421 28.6171 27.4374 28.5788L27.4539 28.5059L27.4703 28.4354C27.4744 28.4018 27.4837 28.3691 27.4978 28.3383L27.5142 28.2819L27.5518 28.1706L27.5683 28.1244C27.5871 28.0759 27.6059 28.0242 27.6278 27.9756V27.9568C27.6497 27.9137 27.6685 27.8675 27.6897 27.8244L27.7116 27.7837C27.7335 27.7429 27.7547 27.6999 27.779 27.6591C27.7776 27.6519 27.7776 27.6444 27.779 27.6372C27.8064 27.5886 27.8354 27.5424 27.8651 27.497L27.8894 27.4562L27.9568 27.3591L28.0351 27.3027L28.0947 27.2244L28.1487 27.1594L28.2004 27.103C28.2302 27.0677 28.2623 27.0356 28.2921 27.0058L28.3516 26.9463L28.3978 26.9032L28.4761 26.8358L28.5224 26.7982C28.5493 26.7743 28.5781 26.7525 28.6085 26.7332L28.6493 26.7035C28.6923 26.6737 28.7354 26.6439 28.7793 26.6196L45.0726 17.2071L45.1972 17.1421L45.2152 17.1249Z" fill="#9FBEFF"/>
<path d="M43.8663 20.7721C44.2831 20.5316 44.6238 20.7235 44.6238 21.2045C44.6104 21.466 44.5352 21.7207 44.4045 21.9476C44.2738 22.1746 44.0913 22.3674 43.8718 22.5103L30.2551 30.3711C29.8384 30.6115 29.5008 30.4173 29.4977 29.9387C29.5114 29.6769 29.5869 29.4221 29.718 29.1951C29.8491 28.9682 30.0321 28.7755 30.252 28.6328L43.8663 20.7721Z" fill="#3E7BFA"/>
<path d="M37.139 33.1291C37.5581 32.8887 37.8989 33.0806 37.8989 33.5615C37.8852 33.8233 37.8097 34.0781 37.6786 34.3051C37.5474 34.532 37.3644 34.7247 37.1445 34.8674L30.2794 38.8295C29.8627 39.0731 29.5219 38.878 29.5219 38.3971C29.5349 38.135 29.61 37.8798 29.7412 37.6526C29.8724 37.4254 30.0558 37.2327 30.2763 37.0905L37.139 33.1291Z" fill="#3E7BFA"/>
<path d="M43.8773 25.0044C44.2964 24.7608 44.6348 24.9558 44.6371 25.4345C44.6234 25.6962 44.5479 25.951 44.4168 26.178C44.2857 26.405 44.1027 26.5976 43.8828 26.7403L30.2684 34.601C29.8494 34.8415 29.511 34.6496 29.5086 34.1686C29.5231 33.9074 29.599 33.6532 29.73 33.4268C29.8611 33.2003 30.0437 33.0079 30.263 32.8652L43.8773 25.0044Z" fill="#3E7BFA"/>
</g>
</g>
<defs>
<linearGradient id="paint0_linear_4_356" x1="34.4936" y1="68.8848" x2="34.4936" y2="41.817" gradientUnits="userSpaceOnUse">
<stop stop-color="white"/>
<stop offset="0.5" stop-color="#FCFEFF"/>
<stop offset="0.8" stop-color="#F4F8FF"/>
<stop offset="1" stop-color="#E9F1FF"/>
</linearGradient>
<linearGradient id="paint1_linear_4_356" x1="11.1269" y1="62.792" x2="57.859" y2="62.792" gradientUnits="userSpaceOnUse">
<stop stop-color="#B7D1FF"/>
<stop offset="0.2" stop-color="#DFE8FF"/>
<stop offset="0.52" stop-color="white"/>
<stop offset="0.73" stop-color="#FCFDFF"/>
<stop offset="0.85" stop-color="#EDF2FF"/>
<stop offset="0.95" stop-color="#D3DFFF"/>
<stop offset="1" stop-color="#D8E5FF"/>
</linearGradient>
<linearGradient id="paint2_linear_4_356" x1="34.4933" y1="65.3617" x2="34.4933" y2="24.8156" gradientUnits="userSpaceOnUse">
<stop stop-color="#DBE2FD"/>
<stop offset="0.11" stop-color="#B7CBFB" stop-opacity="0.8"/>
<stop offset="0.24" stop-color="#91B0F9" stop-opacity="0.541"/>
<stop offset="0.37" stop-color="#70A2F8" stop-opacity="0.412"/>
<stop offset="0.5" stop-color="#5585F6" stop-opacity="0.259"/>
<stop offset="0.63" stop-color="#409BF5" stop-opacity="0.149"/>
<stop offset="0.75" stop-color="#316BF5" stop-opacity="0.071"/>
<stop offset="0.88" stop-color="#2865F4" stop-opacity="0.02"/>
<stop offset="1" stop-color="#2586F4" stop-opacity="0"/>
</linearGradient>
<linearGradient id="paint3_linear_4_356" x1="27.3991" y1="29.717" x2="46.462" y2="29.717" gradientUnits="userSpaceOnUse">
<stop stop-color="white"/>
<stop offset="0.5" stop-color="#FCFEFF"/>
<stop offset="0.8" stop-color="#F4F8FF"/>
<stop offset="1" stop-color="#E9F1FF"/>
</linearGradient>
<clipPath id="clip0_4_356">
<rect width="1920" height="1080" fill="white" transform="translate(-1493 -160)"/>
</clipPath>
</defs>
</svg>
