<svg width="70" height="70" viewBox="0 0 70 70" fill="none" xmlns="http://www.w3.org/2000/svg">
  <g clip-path="url(#clip0_4_356)">
  <rect width="1920" height="1080" transform="translate(-396 -160)" fill="#F8FAFB"/>
  <rect x="-38" y="-27" width="426" height="116" rx="4" fill="white"/>
  <circle cx="35" cy="35" r="35" fill="#E3F6FF"/>
  <mask id="mask0_4_356" style="mask-type:alpha" maskUnits="userSpaceOnUse" x="0" y="0" width="70" height="70">
  <circle cx="35" cy="35" r="35" fill="#E3F6FF"/>
  </mask>
  <g mask="url(#mask0_4_356)">
  <g opacity="0.1">
  <path opacity="0.1" d="M55.7316 63.3991C57.0739 64.1728 57.0785 65.4302 55.7316 66.2047L36.4461 77.4186C35.6963 77.8008 34.8667 78 34.0251 78C33.1835 78 32.3539 77.8008 31.6041 77.4186L12.1808 66.2124C10.8416 65.4386 10.8339 64.1912 12.1678 63.3991L31.4648 52.1852C32.2148 51.8036 33.0443 51.6047 33.8858 51.6047C34.7273 51.6047 35.5568 51.8036 36.3068 52.1852L55.7316 63.3991Z" fill="#1D51BC"/>
  </g>
  <path d="M55.7683 54.309C57.113 55.0827 57.1153 56.3401 55.7813 57.1168L36.45 68.3521C35.6985 68.735 34.867 68.9346 34.0236 68.9346C33.1802 68.9346 32.3487 68.735 31.5972 68.3521L12.1357 57.1168C10.7934 56.3431 10.7857 55.0827 12.1357 54.309L31.4679 43.0736C32.2194 42.6908 33.0508 42.4911 33.8942 42.4911C34.7377 42.4911 35.5691 42.6908 36.3206 43.0736L55.7683 54.309Z" fill="url(#paint0_linear_4_356)"/>
  <path d="M56.78 55.714C56.7535 56.0151 56.6474 56.3037 56.4726 56.5502C56.2978 56.7967 56.0605 56.9923 55.7851 57.1168L36.4499 68.3521C35.6984 68.735 34.867 68.9346 34.0236 68.9346C33.1801 68.9346 32.3487 68.735 31.5972 68.3521L12.1357 57.1168C11.8581 56.9933 11.6183 56.7984 11.4405 56.552C11.2628 56.3055 11.1536 56.0164 11.124 55.714V55.714V57.0349C11.153 57.3378 11.2619 57.6275 11.4397 57.8744C11.6175 58.1213 11.8577 58.3165 12.1357 58.44L31.6048 69.67C32.3566 70.0519 33.188 70.251 34.0312 70.251C34.8744 70.251 35.7058 70.0519 36.4576 69.67L55.7897 58.4347C56.0655 58.3101 56.3031 58.1142 56.4779 57.8672C56.6528 57.6202 56.7587 57.3311 56.7846 57.0296V55.7087L56.78 55.714Z" fill="url(#paint1_linear_4_356)"/>
  <path d="M34.0309 65.4907C33.788 65.5001 33.5458 65.4587 33.3199 65.369L16.5821 55.7056L33.189 46.0583C33.4124 45.971 33.6511 45.9301 33.8908 45.9381C34.1344 45.9285 34.3774 45.97 34.6041 46.0598L51.3311 55.7339L34.728 65.3721C34.5056 65.4607 34.267 65.5011 34.0278 65.4907H34.0309Z" fill="#3E7BFA"/>
  <path d="M16.5767 25.8866V55.7064L33.3115 65.369C33.5382 65.4585 33.7811 65.5 34.0247 65.4907C34.2639 65.5008 34.5025 65.4604 34.725 65.3721L51.3281 55.7378V25.8866H16.5767Z" fill="url(#paint2_linear_4_356)"/>
  <path d="M34.1349 62.2481H33.9237C33.0856 62.2473 32.2605 62.041 31.5207 61.6474L12.0936 50.4335C11.7883 50.2943 11.5259 50.0758 11.3336 49.8009C11.1412 49.5259 11.0261 49.2045 11 48.87C11.0241 48.539 11.1373 48.2206 11.3275 47.9486C11.5177 47.6766 11.7779 47.4611 12.0806 47.3249L31.3783 36.1186C32.1486 35.7101 33.0106 35.5054 33.8824 35.524C34.7574 35.5061 35.6227 35.7107 36.3971 36.1186L55.8219 47.3348C56.1269 47.472 56.3895 47.6885 56.5823 47.9617C56.775 48.235 56.8909 48.555 56.9178 48.8884C56.8916 49.2192 56.7777 49.5371 56.5878 49.8092C56.3978 50.0814 56.1387 50.2979 55.8372 50.4366L36.5349 61.6474C35.7962 62.0412 34.972 62.2475 34.1349 62.2481ZM33.7905 35.8531C33.0089 35.8538 32.2395 36.0464 31.5497 36.414L12.252 47.6279C12.0047 47.7388 11.7906 47.9125 11.6313 48.1317C11.4719 48.351 11.3727 48.6081 11.3436 48.8776C11.3747 49.1492 11.4756 49.4081 11.6366 49.629C11.7975 49.8499 12.013 50.0253 12.262 50.1381L31.6921 61.352C32.4154 61.719 33.2151 61.9102 34.0262 61.9102C34.8374 61.9102 35.6371 61.719 36.3604 61.352L55.6604 50.1411C55.9088 50.0307 56.1237 49.8568 56.2837 49.6371C56.4436 49.4173 56.543 49.1594 56.5719 48.8891C56.5403 48.6173 56.4384 48.3584 56.2763 48.1379C56.1142 47.9174 55.8975 47.7429 55.6474 47.6317L36.2204 36.4117C35.5304 36.0457 34.7614 35.854 33.9803 35.8531H33.7905Z" fill="white"/>
  <path d="M34.1303 55.4171H33.9313C33.0908 55.4163 32.2632 55.2101 31.5207 54.8163L12.0936 43.5994C11.7895 43.4615 11.5277 43.2449 11.3355 42.9718C11.1432 42.6988 11.0274 42.3794 11 42.0466C11.0261 41.7158 11.1401 41.3979 11.33 41.1257C11.52 40.8536 11.7791 40.637 12.0806 40.4984L31.3783 29.2845C32.1486 28.876 33.0106 28.6713 33.8824 28.6899C34.7574 28.672 35.6227 28.8766 36.3971 29.2845L55.8219 40.5007C56.1269 40.6379 56.3895 40.8544 56.5823 41.1276C56.775 41.4009 56.8909 41.7209 56.9178 42.0543C56.8916 42.3851 56.7777 42.703 56.5878 42.9751C56.3978 43.2473 56.1387 43.4638 55.8372 43.6024L36.5349 54.8133C35.7951 55.2089 34.9693 55.4163 34.1303 55.4171ZM33.8005 29.019C33.0151 29.0196 32.2419 29.2141 31.5497 29.5853L12.252 40.7938C12.0036 40.9039 11.7886 41.0778 11.6291 41.2979C11.4696 41.5179 11.3711 41.7762 11.3436 42.0466C11.3501 42.2903 11.434 42.5257 11.5832 42.7185C11.7675 42.959 12 43.1584 12.2658 43.304L31.6921 54.5179C32.4153 54.8855 33.215 55.0771 34.0262 55.0771C34.8375 55.0771 35.6372 54.8855 36.3604 54.5179L55.6604 43.307C55.9085 43.1969 56.1233 43.0234 56.2833 42.8041C56.4433 42.5848 56.5428 42.3272 56.5719 42.0573C56.5407 41.785 56.4391 41.5254 56.277 41.3044C56.1148 41.0833 55.8978 40.9084 55.6474 40.7969L36.2204 29.5853C35.5264 29.2143 34.7519 29.0198 33.965 29.019H33.8005Z" fill="white"/>
  <path d="M32.5829 21.1311C37.8634 24.1846 42.143 31.5842 42.1277 37.6615C42.1124 43.7387 37.8083 46.1892 32.5224 43.1349C27.2365 40.0806 22.9593 32.6832 22.9777 26.6075C22.996 20.5318 27.2939 18.0806 32.5829 21.1311Z" fill="#3E7BFA"/>
  <path d="M44.8766 35.6319C44.878 35.6046 44.878 35.5773 44.8766 35.55V35.0081L44.8606 34.8229V34.7013L44.8292 34.4372L44.8131 34.2842V34.2337C44.7917 34.0722 44.771 33.9115 44.7442 33.75V33.6842C44.7228 33.5495 44.6991 33.4202 44.6731 33.277C44.6743 33.2533 44.6743 33.2296 44.6731 33.2059L44.6333 33.013L44.5858 32.7781L44.5544 32.6487L44.507 32.4375C44.5008 32.3825 44.4885 32.3283 44.4703 32.276C44.4572 32.2209 44.4358 32.1467 44.4175 32.0832C44.3991 32.0197 44.383 31.9431 44.3624 31.872C44.3417 31.8008 44.3463 31.8031 44.3356 31.7686L44.259 31.5046C44.2407 31.4442 44.2246 31.3829 44.2062 31.3248L44.1902 31.2743C44.1396 31.1082 44.0868 30.9444 44.0317 30.7776C44.0329 30.7636 44.0329 30.7495 44.0317 30.7355C43.9812 30.5878 43.9315 30.4424 43.8787 30.2947C43.8787 30.2733 43.8603 30.2495 43.8519 30.2258C43.8435 30.2021 43.8098 30.1171 43.7914 30.062C43.7731 30.0069 43.7333 29.909 43.7019 29.8271C43.6705 29.7452 43.6621 29.7268 43.6414 29.6794L43.5703 29.4942L43.5152 29.3618L43.4042 29.0978L43.3407 28.9524L43.3193 28.8995C43.2504 28.7465 43.1792 28.5934 43.108 28.4404V28.422C43.0866 28.3822 43.0682 28.3455 43.0476 28.3003C42.9894 28.1786 42.9343 28.057 42.8731 27.936L42.844 27.8832L42.6963 27.5955L42.5777 27.3659L42.5409 27.3024C42.5172 27.2549 42.4904 27.2098 42.4644 27.1654L42.2501 26.7827C42.2211 26.7299 42.1897 26.6794 42.1606 26.6297L42.1024 26.5264L41.9915 26.3412L41.8093 26.045L41.6433 25.781C41.5828 25.683 41.5193 25.5881 41.4558 25.4902L41.3922 25.3953L41.2392 25.1657C41.2024 25.1152 41.168 25.0624 41.1305 25.0126C41.0198 24.8524 40.9063 24.694 40.7899 24.5374C40.6576 24.3606 40.5259 24.183 40.3859 24.0093L40.3698 23.9856C40.2695 23.8585 40.1662 23.7216 40.0637 23.6106L40.0002 23.5341C39.8785 23.3886 39.7545 23.2432 39.6305 23.1009L39.6122 23.0825L39.4958 22.9532L39.2578 22.6892L39.2127 22.6417L39.0466 22.4703C38.9861 22.4068 38.928 22.341 38.8668 22.2797L38.7979 22.2109L38.6157 22.0341C38.5652 21.9813 38.5124 21.9308 38.4627 21.881L38.3731 21.7968L38.178 21.6147C38.1328 21.5749 38.0884 21.5305 38.041 21.4907C37.9936 21.4509 37.9698 21.4272 37.9323 21.3958L37.7372 21.2244L37.6155 21.1188L37.4862 21.0101L37.291 20.8517L37.1908 20.7698L36.916 20.6114L36.7362 20.4713L36.6596 20.4162C36.5831 20.3611 36.5066 20.3106 36.4354 20.2578C36.3642 20.205 36.3352 20.1813 36.2823 20.1491L36.2426 20.1201C36.1079 20.0275 35.9785 19.9379 35.8354 19.856L35.801 19.8193L35.4313 19.5897L35.3357 19.5308C35.2431 19.4757 35.1505 19.4221 35.0556 19.3724L35.0372 19.3617L34.9974 19.3402L34.6829 19.1788L34.6469 19.1581H34.6285C34.5176 19.103 34.4043 19.0494 34.2903 18.9997L34.2467 18.9759L34.2046 18.9576C33.9801 18.8566 33.7502 18.7685 33.5158 18.6936L33.4783 18.6798H33.4492C33.3352 18.6377 33.2242 18.6032 33.1163 18.5696H33.0582C32.9388 18.5351 32.8201 18.5007 32.7038 18.4716C32.5852 18.4425 32.4658 18.4157 32.351 18.3951H32.2921C32.1704 18.3737 32.0449 18.3522 31.9248 18.3339H31.8689C31.7449 18.3186 31.6209 18.3078 31.497 18.2971H30.7569C30.68 18.2944 30.6031 18.2998 30.5273 18.3132H30.5005C30.4279 18.313 30.3555 18.321 30.2847 18.3369H30.2151L30.0069 18.3737H29.9786C29.8753 18.3951 29.775 18.4188 29.6725 18.4502H29.6266L29.325 18.49H29.3013L29.2592 18.5061L29.1452 18.5481L29.0687 18.5795L28.9554 18.63L28.8842 18.6614L28.7595 18.7226L28.7021 18.7517L28.5245 18.8489L25.7695 20.466L25.9463 20.368L26.0044 20.3389L26.1284 20.2785L26.1996 20.2471L26.3128 20.1966L26.3894 20.1675L26.5042 20.1224L26.57 20.1009C26.6649 20.0665 26.7605 20.0374 26.8554 20.0114L26.9029 19.9984C27.0031 19.9716 27.1034 19.9456 27.209 19.9219H27.2457L27.4531 19.8874H27.5243C27.5932 19.8874 27.6643 19.869 27.7386 19.8637H27.7745L28.0041 19.8476H28.7442L29.1169 19.8874H29.172C29.2937 19.9035 29.4153 19.9241 29.5393 19.9479H29.5944C29.713 19.9716 29.8324 19.9953 29.9511 20.0244C30.0674 20.0535 30.186 20.0849 30.3023 20.1193L30.3612 20.1407C30.4722 20.1752 30.5832 20.2096 30.6942 20.2494L30.7653 20.2731C30.8786 20.3152 30.9949 20.3573 31.1112 20.4055C31.2276 20.4537 31.3408 20.4981 31.4518 20.5509L31.5283 20.5823C31.6416 20.6328 31.7526 20.6856 31.8666 20.7407L31.9217 20.7698C32.025 20.8203 32.1306 20.8754 32.2332 20.9313L32.299 20.9657C32.3916 21.0185 32.4865 21.069 32.5791 21.1241C32.7321 21.2137 32.8906 21.3093 33.0444 21.4042L33.0758 21.4257C33.2288 21.5206 33.3773 21.6208 33.525 21.7241C33.5778 21.7586 33.6283 21.7953 33.678 21.8328L33.9842 22.057L34.164 22.1971C34.2535 22.266 34.3439 22.3341 34.428 22.406C34.5122 22.4779 34.5574 22.5093 34.6209 22.5644L34.8849 22.7756L35.0801 22.9471L35.3257 23.169L35.5209 23.3489L35.7642 23.5869L35.9441 23.7636C36.0283 23.8478 36.1132 23.9351 36.2081 24.0277C36.303 24.1203 36.3191 24.1409 36.3719 24.1991C36.4698 24.3024 36.5624 24.408 36.6573 24.5136L36.7737 24.6407C36.9061 24.7937 37.0377 24.9468 37.1647 25.0998L37.2283 25.1764C37.3369 25.3088 37.4425 25.4404 37.5482 25.5751C37.6851 25.7496 37.8122 25.9241 37.9499 26.1032C38.0663 26.2616 38.1795 26.42 38.2935 26.5838L38.4022 26.7368L38.6188 27.059L38.8063 27.3498L38.9724 27.6138L39.1522 27.91C39.2104 28.0049 39.2685 28.1006 39.3236 28.1978L39.4109 28.3508C39.4874 28.4779 39.5563 28.6149 39.6252 28.7335L39.7017 28.8705C39.7545 28.9707 39.8073 29.0687 39.8548 29.1689C39.9022 29.2692 39.955 29.3595 40.0025 29.4544L40.2083 29.8745L40.2634 29.9932C40.3476 30.1699 40.4272 30.3498 40.5068 30.5212C40.5282 30.5687 40.5489 30.6192 40.5672 30.6666C40.6254 30.799 40.6805 30.9306 40.7333 31.06L40.8098 31.2452C40.8604 31.3722 40.9101 31.5092 40.9575 31.6278L41.0211 31.7939C41.0815 31.963 41.1427 32.1322 41.2009 32.3013C41.1994 32.3153 41.1994 32.3294 41.2009 32.3434C41.2614 32.5286 41.3226 32.7107 41.3777 32.8952C41.3961 32.9556 41.4121 33.0138 41.4282 33.075C41.4649 33.202 41.5047 33.339 41.5369 33.4531L41.592 33.6643C41.6234 33.7829 41.6524 33.9023 41.6815 34.0209L41.729 34.2298C41.758 34.3515 41.7818 34.4732 41.8055 34.5941L41.8453 34.787C41.8744 34.9454 41.9035 35.1069 41.9295 35.2653V35.3342C41.9586 35.514 41.9823 35.6961 42.006 35.8622L42.0221 36.0153C42.0379 36.1438 42.0512 36.2732 42.0619 36.4033L42.0779 36.5885C42.0779 36.7102 42.094 36.8318 42.0994 36.9528V38.3303C42.0994 38.4466 42.0833 38.5652 42.0726 38.6793C42.0695 38.7457 42.0624 38.8119 42.0512 38.8775C42.0435 38.9433 42.0297 39.0726 42.0167 39.1683L41.9853 39.3772C41.9778 39.4664 41.9627 39.5547 41.9402 39.6412C41.9241 39.7308 41.9111 39.7943 41.895 39.8708C41.879 39.9474 41.8606 40.0239 41.8422 40.1004C41.8239 40.177 41.7971 40.2772 41.7734 40.3645C41.7496 40.4517 41.7228 40.5443 41.6968 40.6285C41.6983 40.64 41.6971 40.6517 41.6934 40.6627C41.6897 40.6737 41.6836 40.6837 41.6754 40.692C41.6356 40.816 41.5935 40.9354 41.5484 41.054C41.5423 41.086 41.5298 41.1165 41.5116 41.1435C41.4718 41.2468 41.4274 41.3494 41.3823 41.4496C41.375 41.4697 41.366 41.4892 41.3555 41.5078C41.2973 41.6318 41.2369 41.7535 41.1734 41.8698C41.1075 41.9861 41.041 42.0994 40.9698 42.2081L40.9277 42.2716C40.8749 42.3481 40.819 42.43 40.7639 42.5065L40.695 42.5961C40.6399 42.6649 40.5864 42.733 40.529 42.7966L40.4655 42.8731C40.3889 42.9603 40.3124 43.0422 40.2275 43.1211L40.1907 43.1555L39.9711 43.3506L39.8892 43.4165C39.8234 43.4693 39.7599 43.5198 39.691 43.5695L39.6091 43.6277C39.5165 43.6912 39.4216 43.7517 39.3267 43.8098L42.0818 42.2027C42.1767 42.1476 42.2723 42.0864 42.3642 42.0229L42.4483 41.9647C42.5142 41.9142 42.5807 41.8667 42.6435 41.8116L42.7254 41.7458C42.8019 41.6823 42.8731 41.6165 42.945 41.5476L42.9818 41.5162C43.0636 41.4397 43.1432 41.3525 43.2198 41.2683L43.2833 41.1917C43.3414 41.1259 43.3965 41.0593 43.4494 40.9912L43.5182 40.9017C43.5733 40.8252 43.6292 40.7486 43.682 40.6667L43.7272 40.6009V40.5826C43.7907 40.4792 43.8542 40.3736 43.9147 40.2657C43.9751 40.1571 44.0333 40.0461 44.0861 39.9305C44.0871 39.9227 44.0871 39.9147 44.0861 39.9068C44.0961 39.8879 44.105 39.8685 44.1129 39.8486C44.158 39.7507 44.2024 39.6481 44.2422 39.5425C44.2552 39.5134 44.269 39.4821 44.2789 39.453C44.2889 39.4239 44.2973 39.4078 44.3057 39.3841C44.3425 39.2892 44.3746 39.1913 44.409 39.091C44.4077 39.0797 44.4086 39.0683 44.4118 39.0574C44.4149 39.0465 44.4202 39.0363 44.4274 39.0275L44.4748 38.8798C44.4798 38.8392 44.4896 38.7994 44.5039 38.7612C44.5277 38.6739 44.5514 38.5867 44.5728 38.4971C44.5788 38.46 44.5885 38.4236 44.6019 38.3885L44.6256 38.2668C44.6417 38.1902 44.657 38.1137 44.6708 38.0372C44.6845 37.9607 44.6891 37.9607 44.6945 37.9209C44.6998 37.8811 44.7106 37.826 44.7159 37.7785C44.7213 37.7311 44.7396 37.6385 44.7473 37.5696C44.7549 37.5007 44.7473 37.4984 44.7634 37.464C44.7794 37.4295 44.7634 37.34 44.7817 37.2788C44.7957 37.2136 44.8029 37.1472 44.8032 37.0806V37.004C44.7999 36.9156 44.806 36.8271 44.8215 36.74V36.0688C44.8718 35.929 44.8906 35.7798 44.8766 35.6319Z" fill="#1D51BC"/>
  <path d="M32.5775 23.0886C36.9236 25.6011 40.4394 31.6982 40.4264 36.6834C40.4134 41.6685 36.8762 43.6942 32.5278 41.1741C28.1794 38.654 24.6628 32.586 24.6789 27.5901C24.695 22.5943 28.2291 20.5792 32.5775 23.0886Z" fill="#9FBEFF"/>
  <path d="M32.5768 23.58C36.6872 25.9578 40.0132 31.7082 40.0002 36.437C39.9872 41.1657 36.6398 43.0576 32.5271 40.6959C28.4143 38.3341 25.0907 32.5623 25.1037 27.8389C25.1167 23.1155 28.4641 21.2053 32.5768 23.58Z" fill="url(#paint3_linear_4_356)"/>
  <path d="M31.7824 32.8026L32.0786 32.6312L31.64 33.3368L31.3439 33.5105L31.7824 32.8026Z" fill="#1D51BC"/>
  <path d="M32.9257 32.2263C32.927 32.2141 32.927 32.2018 32.9257 32.1896V32.1169C32.9246 32.1046 32.9246 32.0924 32.9257 32.0801V32.0403V32.0128C32.9266 31.9988 32.9266 31.9847 32.9257 31.9707C32.9269 31.9575 32.9269 31.9441 32.9257 31.9309V31.8988V31.859C32.9267 31.8518 32.926 31.8445 32.9238 31.8376C32.9215 31.8307 32.9177 31.8244 32.9127 31.8192C32.9116 31.8069 32.9116 31.7947 32.9127 31.7824C32.9117 31.7746 32.9117 31.7666 32.9127 31.7587L32.8966 31.722L32.8806 31.6875L32.8607 31.6477V31.6057L32.8255 31.5421C32.8255 31.5261 32.804 31.5046 32.7933 31.4893L32.7727 31.4549V31.4365L32.7298 31.3761L32.6984 31.3332L32.6801 31.3125L32.651 31.275L32.6219 31.2467L32.5905 31.2123L32.3977 31.122L32.3632 31.0875L32.325 31.0585L32.2966 31.0324L32.263 31.0087L32.2308 30.985L32.1995 30.9636L32.1673 30.9452L32.1329 30.9238L32.1069 30.9054H32.0747L32.0456 30.8924H31.7395L31.6867 30.9054C31.6654 30.9116 31.6451 30.9206 31.6262 30.9322L31.3301 31.1036L31.3882 31.0776C31.4067 31.0695 31.4263 31.064 31.4464 31.0615H31.6362L31.7051 31.0799L31.7793 31.1067C31.803 31.122 31.8268 31.1304 31.8505 31.1457C31.8996 31.1739 31.9464 31.2059 31.9905 31.2414C32.032 31.2743 32.0716 31.3096 32.1092 31.347C32.1459 31.3868 32.1857 31.4312 32.2224 31.4763C32.2583 31.5196 32.291 31.5654 32.3204 31.6133L32.3441 31.6477L32.4206 31.7771C32.4443 31.8276 32.4681 31.875 32.4864 31.9248C32.5048 31.9722 32.5232 32.0227 32.537 32.0702C32.5517 32.117 32.5639 32.1645 32.5737 32.2125C32.5835 32.2576 32.5896 32.3034 32.5921 32.3495C32.5947 32.3926 32.5947 32.4358 32.5921 32.4789C32.5961 32.5193 32.5961 32.5601 32.5921 32.6005C32.5844 32.6358 32.5739 32.6703 32.5607 32.7039C32.547 32.7354 32.5301 32.7654 32.5102 32.7934C32.4788 32.8382 32.4384 32.876 32.3915 32.9044L32.6877 32.7329C32.7345 32.7046 32.7749 32.6668 32.8063 32.622L32.8193 32.6036C32.8306 32.5869 32.8403 32.5692 32.8484 32.5508V32.5301C32.8472 32.5248 32.8472 32.5193 32.8484 32.5141V32.3931C32.8472 32.3809 32.8472 32.3686 32.8484 32.3564V32.3189C32.8472 32.31 32.8472 32.301 32.8484 32.2921V32.2263H32.9257Z" fill="#1D51BC"/>
  <path d="M35.2584 27.2075L35.5546 27.0361L32.736 31.5743L32.4398 31.7465L35.2584 27.2075Z" fill="#1D51BC"/>
  <path d="M35.2584 27.2075L32.0036 31.207C31.9595 31.1712 31.9126 31.139 31.8635 31.1105C31.5995 30.9575 31.3355 30.9682 31.2054 31.1656C31.1382 31.32 31.107 31.4877 31.114 31.6559C31.121 31.8241 31.1661 31.9885 31.2459 32.1368L30.7385 32.7552L31.3408 33.5105L31.7793 32.8026L31.8559 32.8531C32.1199 33.0062 32.3839 32.9932 32.514 32.795C32.5812 32.6243 32.6092 32.4407 32.596 32.2578C32.5827 32.0749 32.5286 31.8973 32.4375 31.7381L35.2584 27.2075Z" fill="#3E7BFA"/>
  <path d="M31.8689 31.4718C31.9551 31.5217 32.0306 31.5883 32.0908 31.6677C32.1916 31.77 32.2604 31.8994 32.2891 32.0402C32.3178 32.1809 32.305 32.3269 32.2523 32.4605C32.1704 32.5768 32.0227 32.5822 31.8697 32.4919C31.7838 32.4412 31.7082 32.3747 31.647 32.296C31.5464 32.1935 31.4776 32.0641 31.4491 31.9234C31.4206 31.7826 31.4335 31.6367 31.4863 31.5031C31.5597 31.3876 31.7082 31.3822 31.8689 31.4718Z" fill="#9FBEFF"/>
  <path d="M38.2652 22.1588C38.045 22.2589 37.7972 22.2804 37.5631 22.2199C37.329 22.1593 37.1227 22.0202 36.9787 21.8259C36.8544 21.6956 36.7766 21.5279 36.7575 21.3487C36.7384 21.1696 36.779 20.9892 36.8731 20.8356L36.1943 21.7601C36.0997 21.9131 36.0584 22.0931 36.077 22.272C36.0955 22.4509 36.1728 22.6186 36.2968 22.7489C36.4405 22.9445 36.6473 23.0844 36.8823 23.1451C37.1173 23.2057 37.366 23.1834 37.5864 23.0818C37.6582 23.0398 37.7209 22.9838 37.7708 22.9172L38.4496 21.9928C38.3998 22.0598 38.3371 22.1163 38.2652 22.1588Z" fill="#9FBEFF"/>
  <path d="M39.8537 21.2221C40.2768 20.646 40.0316 19.747 39.306 19.214C38.5804 18.6811 37.6491 18.716 37.226 19.2921C36.8029 19.8682 37.0481 20.7672 37.7737 21.3002C38.4994 21.8331 39.4306 21.7982 39.8537 21.2221Z" fill="#1D51BC"/>
  <path d="M39.5463 21.4992C39.1787 21.6667 38.7647 21.7028 38.3737 21.6012C37.9826 21.4996 37.6385 21.2666 37.3989 20.9413C37.1918 20.724 37.0622 20.4443 37.0304 20.1458C36.9986 19.8473 37.0662 19.5466 37.2229 19.2905L36.4316 20.3474C36.276 20.6037 36.2088 20.904 36.2403 21.2022C36.2718 21.5004 36.4003 21.78 36.6061 21.9981C36.845 22.3242 37.1894 22.5576 37.5808 22.6587C37.9722 22.7598 38.3865 22.7225 38.7535 22.553C38.8719 22.4859 38.9759 22.3962 39.0596 22.289L39.8525 21.2321C39.7682 21.3397 39.6643 21.4303 39.5463 21.4992Z" fill="#3E7BFA"/>
  <path d="M33.6076 17.1691C33.6087 17.1831 33.6087 17.1972 33.6076 17.2112C33.6088 17.2216 33.6088 17.2322 33.6076 17.2426C33.6088 17.2558 33.6088 17.2692 33.6076 17.2824C33.6086 17.2928 33.6086 17.3033 33.6076 17.3138C33.6026 17.3275 33.5965 17.3408 33.5892 17.3536L33.5701 17.3834C33.5614 17.3998 33.5517 17.4156 33.541 17.4309C33.5324 17.4385 33.5252 17.4476 33.5196 17.4576L33.4645 17.515L33.4438 17.5365L33.404 17.5709L33.3665 17.5969L33.3191 17.6283L33.2693 17.6604C33.2302 17.6842 33.1896 17.7055 33.1477 17.724L33.1079 17.74L33.0076 17.7814L32.9678 17.7928L32.902 17.8112L32.8515 17.8242L32.775 17.8403H32.7306L32.5798 17.8579H31.8734L31.7969 17.8403L31.7502 17.8273L31.6102 17.7814H31.5918C31.5312 17.7565 31.4719 17.7284 31.4143 17.6972C31.3096 17.6507 31.2191 17.5774 31.1519 17.4846C31.0847 17.3919 31.0432 17.2831 31.0316 17.1691V19.2217C31.0437 19.3354 31.0854 19.444 31.1526 19.5367C31.2197 19.6293 31.3099 19.7028 31.4143 19.7497C31.4714 19.7814 31.5304 19.8095 31.591 19.8339C31.6362 19.8523 31.6836 19.8653 31.7311 19.8813H31.7686L31.8451 19.9028H31.9002L31.9691 19.9158H32.5293L32.677 19.8944H32.7191C32.7436 19.8908 32.7678 19.886 32.7918 19.8798L32.8446 19.8668L32.9127 19.8477H32.9494C32.9846 19.8365 33.0191 19.8232 33.0528 19.8079L33.0895 19.7918L33.2135 19.7313H33.2295C33.24 19.7227 33.2516 19.7155 33.264 19.7099L33.3091 19.6785L33.3459 19.6495C33.3602 19.6404 33.3735 19.6299 33.3857 19.6181L33.404 19.5997C33.4219 19.5815 33.4386 19.5621 33.4538 19.5415V19.5148C33.4651 19.5003 33.4756 19.4853 33.4852 19.4696C33.484 19.4635 33.484 19.4573 33.4852 19.4512C33.4852 19.4382 33.4982 19.4245 33.5035 19.4092V19.3885C33.5047 19.3763 33.5047 19.364 33.5035 19.3518V19.3219C33.505 19.3079 33.505 19.2938 33.5035 19.2798V19.2538V17.2005C33.5344 17.18 33.5706 17.1691 33.6076 17.1691Z" fill="#9FBEFF"/>
  <path d="M34.2474 15.1954C34.2486 15.2155 34.2486 15.2357 34.2474 15.2558V15.3063L34.2314 15.3645L34.2099 15.412C34.2018 15.4328 34.1927 15.4533 34.1824 15.4732C34.175 15.4881 34.166 15.5023 34.1556 15.5153C34.1418 15.539 34.1265 15.5617 34.1097 15.5834L34.0569 15.65C34.0316 15.6792 34.0043 15.7066 33.975 15.7319L33.9145 15.7824L33.8617 15.8245L33.7898 15.8719L33.7133 15.9193C33.6532 15.9534 33.5913 15.9843 33.5281 16.012L33.4515 16.0487L33.2985 16.1122L33.2434 16.1306L33.1431 16.1597L33.0666 16.1811L32.9579 16.2048L32.8814 16.2209L32.6572 16.2446H31.8919L31.81 16.2308L31.7028 16.2125L31.6209 16.1956L31.4993 16.1665L31.4334 16.1482C31.3623 16.1267 31.2911 16.103 31.2222 16.077L31.1212 16.0357L31.0768 16.0066C31.0263 15.9829 30.9789 15.9591 30.9345 15.9301C30.688 15.8071 30.4946 15.5988 30.3903 15.3438C30.3671 15.273 30.3554 15.1988 30.3559 15.1242V17.251C30.3732 17.4222 30.4357 17.5857 30.537 17.7249C30.6382 17.8641 30.7746 17.9739 30.9322 18.043C30.9792 18.0712 31.0278 18.0967 31.0776 18.1196L31.1281 18.1433L31.2153 18.18C31.2836 18.207 31.3534 18.2299 31.4243 18.2489H31.4931L31.6148 18.2803H31.6952L31.7985 18.2987H32.6617C32.7363 18.2967 32.8102 18.2843 32.8814 18.2619L32.9449 18.2489L33.0505 18.2275L33.127 18.2061L33.2273 18.177H33.2824L33.4355 18.1188L33.4936 18.0989C33.5569 18.0705 33.6188 18.0388 33.6788 18.004H33.7026L33.7531 17.9696C33.777 17.9553 33.8001 17.9394 33.8219 17.9221C33.8412 17.9093 33.8593 17.895 33.8763 17.8793C33.8976 17.8639 33.9178 17.847 33.9367 17.8288C33.9618 17.8064 33.9855 17.7826 34.0079 17.7576V17.7423C34.0209 17.7279 34.0332 17.7128 34.0446 17.6971V17.6788C34.0623 17.6571 34.0781 17.6341 34.0921 17.6099L34.1105 17.5808V17.5655C34.1105 17.5471 34.1288 17.5257 34.1395 17.505L34.1556 17.4706C34.1861 17.4621 34.2154 17.4498 34.2429 17.4339V17.3933C34.2441 17.3732 34.2441 17.353 34.2429 17.3329V15.1609C34.2429 15.1722 34.2429 15.1836 34.2429 15.1954H34.2474Z" fill="#3E7BFA"/>
  <path d="M33.6872 14.3322C33.8562 14.3872 34.0034 14.4942 34.1078 14.638C34.2123 14.7818 34.2685 14.955 34.2685 15.1327C34.2685 15.3104 34.2123 15.4835 34.1078 15.6273C34.0034 15.7711 33.8562 15.8782 33.6872 15.9332C33.2591 16.1506 32.7856 16.2639 32.3055 16.2639C31.8253 16.2639 31.3518 16.1506 30.9237 15.9332C30.7547 15.8782 30.6075 15.7711 30.5031 15.6273C30.3986 15.4835 30.3424 15.3104 30.3424 15.1327C30.3424 14.955 30.3986 14.7818 30.5031 14.638C30.6075 14.4942 30.7547 14.3872 30.9237 14.3322C31.3516 14.1139 31.8251 14.0001 32.3055 14.0001C32.7858 14.0001 33.2593 14.1139 33.6872 14.3322Z" fill="#1D51BC"/>
  <path d="M27.835 17.1423H27.8197L27.793 17.1607L27.7562 17.1821L27.7111 17.2081L27.6529 17.2426L27.5924 17.2793L27.5159 17.3214L27.3736 17.4056L27.056 17.5885L26.5884 17.8533L26.4537 17.9298L26.3374 17.9956C26.2287 18.0538 26.1736 18.0798 26.1736 18.0798L27.1111 19.7176C27.1682 19.692 27.2237 19.6628 27.2771 19.6303L27.3353 19.5989L27.3858 19.5699L27.431 19.5461L27.4708 19.5224L27.5052 19.504H27.5396L27.5741 19.4857L27.6055 19.4673L27.6399 19.4459L27.6713 19.4298L27.7042 19.4145L27.7333 19.3961L27.7623 19.3801L27.7891 19.3671L27.8128 19.354H27.9338L27.9651 19.3357L27.9996 19.3142L28.0287 19.2982L28.0516 19.2852H28.1282L28.1496 19.2722L28.181 19.2538L28.2047 19.2408L28.2338 19.2224L28.2605 19.2086H28.2766L28.295 19.1956H28.7312L27.835 17.1423Z" fill="#9FBEFF"/>
  <path d="M27.3467 15.6293C27.8059 15.3653 27.6582 15.4678 27.0245 15.8382C26.3909 16.2086 25.5077 16.7061 25.0508 16.9632C24.594 17.2203 24.7447 17.1247 25.3761 16.7573C26.0075 16.39 26.8921 15.8826 27.3467 15.6293Z" fill="#1D51BC"/>
  <path d="M27.6138 15.4862L27.587 15.5023L27.5395 15.5314L27.463 15.5842L27.3865 15.6316L27.2908 15.6867L27.1745 15.7556L27.0398 15.8321L26.6679 16.0487H26.6526L26.5355 16.1153L26.1077 16.377L25.9837 16.4482L25.8567 16.5194L25.4924 16.7283H25.4763L25.3814 16.7834H25.3516L25.2674 16.8308L25.2406 16.8469L25.1771 16.8813L25.0799 16.9403C24.9031 17.0367 24.8159 17.0818 24.8159 17.0788L25.8965 18.9652C25.8965 18.9652 25.9837 18.9201 26.1605 18.8229L26.2607 18.7678L26.3212 18.7548L26.3977 18.715L26.423 18.7005L26.4498 18.6874L26.5102 18.653L26.5868 18.5979L26.6449 18.5665L26.6679 18.5474L26.6947 18.5313L26.7498 18.4999L26.7765 18.4839L26.8056 18.4709L26.8584 18.4418L26.9089 18.415L26.9342 18.3943L26.9763 18.3706L27.0184 18.3469L27.0528 18.3285L27.0842 18.3102L27.1117 18.2941L27.1431 18.278H27.1646L27.1883 18.265L27.2097 18.252H27.2334L27.2541 18.2413H27.5602L27.6 18.2175L27.6421 18.1938L27.7079 18.154L27.7714 18.1196L27.7952 18.1035H27.8587L27.877 18.0882H28.0699L28.0967 18.0721L28.1732 17.6971L28.2023 17.6788L28.2421 17.6551L28.2712 17.6367L28.324 17.6076L28.3554 17.5892L28.4028 17.5625L28.4372 17.541L28.474 17.5196L28.5054 17.5012L28.5321 17.4852H28.5849L27.6138 15.4862Z" fill="#3E7BFA"/>
  <g style="mix-blend-mode:hue">
  <path d="M70 -7H-9V93H70V-7Z" fill="#FF3535"/>
  </g>
  </g>
  </g>
  <defs>
  <linearGradient id="paint0_linear_4_356" x1="33.9527" y1="68.9346" x2="33.9527" y2="42.4911" gradientUnits="userSpaceOnUse">
  <stop stop-color="white"/>
  <stop offset="0.5" stop-color="#FCFEFF"/>
  <stop offset="0.8" stop-color="#F4F8FF"/>
  <stop offset="1" stop-color="#E9F1FF"/>
  </linearGradient>
  <linearGradient id="paint1_linear_4_356" x1="11.124" y1="62.9798" x2="56.7846" y2="62.9798" gradientUnits="userSpaceOnUse">
  <stop stop-color="#B7D1FF"/>
  <stop offset="0.2" stop-color="#DFE8FF"/>
  <stop offset="0.52" stop-color="white"/>
  <stop offset="0.73" stop-color="#FCFDFF"/>
  <stop offset="0.85" stop-color="#EDF2FF"/>
  <stop offset="0.95" stop-color="#D3DFFF"/>
  <stop offset="1" stop-color="#D8E5FF"/>
  </linearGradient>
  <linearGradient id="paint2_linear_4_356" x1="33.9524" y1="65.4922" x2="33.9524" y2="25.8866" gradientUnits="userSpaceOnUse">
  <stop stop-color="#DBE2FD"/>
  <stop offset="0.11" stop-color="#B7CBFB" stop-opacity="0.8"/>
  <stop offset="0.24" stop-color="#91B0F9" stop-opacity="0.541"/>
  <stop offset="0.37" stop-color="#70A2F8" stop-opacity="0.412"/>
  <stop offset="0.5" stop-color="#5585F6" stop-opacity="0.259"/>
  <stop offset="0.63" stop-color="#409BF5" stop-opacity="0.149"/>
  <stop offset="0.75" stop-color="#316BF5" stop-opacity="0.071"/>
  <stop offset="0.88" stop-color="#2865F4" stop-opacity="0.02"/>
  <stop offset="1" stop-color="#2586F4" stop-opacity="0"/>
  </linearGradient>
  <linearGradient id="paint3_linear_4_356" x1="25.1036" y1="32.1356" x2="40.0002" y2="32.1356" gradientUnits="userSpaceOnUse">
  <stop stop-color="white"/>
  <stop offset="0.5" stop-color="#FCFEFF"/>
  <stop offset="0.8" stop-color="#F4F8FF"/>
  <stop offset="1" stop-color="#E9F1FF"/>
  </linearGradient>
  <clipPath id="clip0_4_356">
  <rect width="1920" height="1080" fill="white" transform="translate(-396 -160)"/>
  </clipPath>
  </defs>
  </svg>
  